<svg version="1.2" xmlns="http://www.w3.org/2000/svg" viewBox="0 0 16 16" width="16" height="16">
	<title>discord-icon-svgrepo-com-svg</title>
	<style>
		.s0 { fill: #5865f2 } 
	</style>
	<g>
		<path fill-rule="evenodd" class="s0" d="m15.9 12.1c-1.4 1-2.7 1.6-4 2q-0.5-0.6-0.9-1.4 0.7-0.3 1.4-0.6-0.2-0.2-0.4-0.3c-2.6 1.2-5.4 1.2-8 0q-0.2 0.1-0.4 0.3 0.7 0.3 1.4 0.6-0.4 0.8-0.9 1.4c-1.3-0.4-2.6-1-4-2-0.3-3 0.3-6.1 2.3-9.3q1.6-0.7 3.3-1c0.2 0.3 0.4 0.6 0.5 0.9q1.8-0.3 3.6 0c0.1-0.3 0.3-0.6 0.5-0.9q1.7 0.3 3.3 1c1.8 2.7 2.7 5.8 2.3 9.3zm-9.1-3.5c0-0.9-0.7-1.6-1.5-1.6-0.8 0-1.4 0.7-1.4 1.6 0 0.9 0.6 1.6 1.4 1.6 0.8 0 1.5-0.7 1.5-1.6zm5.3 0c0-0.9-0.6-1.6-1.4-1.6-0.8 0-1.5 0.7-1.5 1.6 0 0.9 0.7 1.6 1.5 1.6 0.8 0 1.4-0.7 1.4-1.6z"/>
	</g>
</svg>